PathFileType	4	(X/Y/Z)	CP4_315.1s.trc																												
DataRate	CameraRate	NumFrames	NumMarkers	Units	OrigDataRate	OrigDataStartFrame	OrigNumFrames																								
30	30	17	10	mm	30	4728	9454																								
Frame#	Time	pelvis_center			manubrium			l_acromion			l_humerus_epicondyle			l_radius_styloid			l_center_hand			r_acromion			r_humerus_epicondyle			r_radius_styloid			r_center_hand		
		X1	Y1	Z1	X2	Y2	Z2	X3	Y3	Z3	X4	Y4	Z4	X5	Y5	Z5	X6	Y6	Z6	X7	Y7	Z7	X8	Y8	Z8	X9	Y9	Z9	X10	Y10	Z10
																															
4728	157.5666667	-2398.751209	-111.9493949	134.0045667	-2527.022876	151.9481833	129.8998004	-2528.036017	78.31518068	-16.75632306	-2315.102725	-53.04345038	-51.00014394	-2093.02357	-15.7010176	-54.99246231	-2058.018125	7.067933565	-70.05895252	-2443.999966	71.63965473	261.981774	-2238.59062	-15.48922006	225.5323792	-2063.019064	31.27168229	67.93212138	-2061.439958	16.67515522	-4.738101254
4729	157.6	-2398.364551	-112.0452787	134.25514	-2527.05008	152.0087472	130.0526758	-2527.171302	77.81095044	-16.32767442	-2314.181023	-53.30202282	-51.00026871	-2091.429151	-14.57680057	-54.75837424	-2057.983616	6.963398709	-69.75922996	-2443.999942	71.91069171	261.9524094	-2239.049744	-13.89355728	224.0373299	-2062.853816	32.15675633	66.17418466	-2060.737417	17.16488984	-6.172208689
4730	157.6333333	-2398.059947	-112.0065734	134.6442985	-2526.997223	152.2715681	130.2738053	-2526.386838	77.30502669	-15.81129212	-2313.156851	-53.65146283	-51.00043142	-2089.603524	-13.22978524	-54.41591954	-2057.857617	6.93896783	-69.40533826	-2444.000066	72.05084898	262.0030758	-2239.424801	-12.33216493	222.7754545	-2062.50057	32.92382071	64.82303185	-2060.005114	17.69385718	-7.269648636
4731	157.6666667	-2397.953766	-111.9515007	134.9441657	-2526.749501	152.6635754	130.6132425	-2525.791948	76.78380952	-15.34575061	-2312.130786	-53.72888062	-50.99927951	-2087.930442	-12.11563399	-54.11094876	-2057.609126	6.911312133	-68.90522186	-2444.000422	72.25768759	262.2487937	-2239.308912	-11.29280868	222.5454352	-2061.487529	33.85803724	65.2013079	-2059.369763	18.2064946	-6.798332127
4732	157.7	-2397.970637	-112.0038972	135.0424831	-2526.359914	152.9383988	130.9589063	-2525.301247	76.31819803	-15.00336229	-2311.145591	-53.39898987	-50.99624804	-2086.334739	-11.27280781	-53.75405024	-2056.91834	7.015526246	-68.10712665	-2444.000461	72.59412326	262.6354149	-2238.282831	-11.16535152	224.1832647	-2059.48329	35.07349774	68.17226047	-2059.075403	18.62176275	-3.745507469
4733	157.7333333	-2398.018192	-112.2693452	135.028004	-2526.057879	153.0011798	131.3105748	-2524.810166	76.03666608	-14.69832417	-2310.193465	-52.89254589	-50.99656096	-2084.29046	-10.09056912	-53.11839425	-2055.152345	7.466037753	-66.92382749	-2443.998716	72.94297351	262.9399926	-2236.437016	-11.86728766	227.6071858	-2056.624964	36.43472973	73.18632887	-2059.053182	18.907663	1.470664083
4734	157.7666667	-2398.052948	-112.6636339	135.0062198	-2525.972783	153.0327911	131.6873402	-2524.308516	75.97660349	-14.3814949	-2309.191643	-52.4374539	-51.01269375	-2081.612938	-8.143493476	-52.19476295	-2052.207568	8.209858384	-65.55250688	-2443.99522	73.27307103	263.0462973	-2234.295779	-12.82362728	231.5341317	-2053.334788	37.76802261	78.80478475	-2058.837404	19.23723826	7.241748378
4735	157.8	-2397.990305	-112.9376059	134.9977156	-2526.017202	153.2416319	131.9577549	-2523.830829	76.02465536	-14.10004822	-2307.955219	-51.9111576	-51.04153319	-2078.553763	-5.724111188	-51.16305497	-2048.75519	9.055313755	-64.24800841	-2443.997537	73.60317654	263.0297893	-2232.278169	-13.40141466	234.7060952	-2049.816436	39.15325208	84.07837666	-2057.955482	19.84774326	12.36084345
4736	157.8333333	-2397.730849	-112.998873	134.9782383	-2526.009141	153.5989337	132.0401357	-2523.370131	75.99688166	-13.73510791	-2306.330637	-50.86593723	-51.01355445	-2075.213882	-3.348150796	-50.15288176	-2045.223535	10.12308513	-62.92474493	-2444.019761	73.90791474	262.9822896	-2230.50981	-13.42994776	236.971464	-2045.989845	40.7529896	89.03101304	-2056.346484	20.75362836	16.92266627
4737	157.8666667	-2397.356867	-113.0346981	134.9506296	-2525.798118	153.9370848	132.0191865	-2522.825921	75.75556713	-13.07801734	-2304.329799	-49.02431252	-50.81347278	-2071.52854	-1.219028863	-49.17810528	-2041.375618	11.68889289	-61.26892825	-2444.049868	74.28222662	262.9457824	-2228.887755	-13.17267061	238.8135484	-2041.853682	42.45709563	93.93200513	-2054.364371	21.83544712	21.49801837
4738	157.9	-2397.08996	-113.2579284	135.0077839	-2525.374014	154.2399852	131.9971104	-2522.074129	75.3645472	-12.19534662	-2302.053376	-46.72524008	-50.39718002	-2067.566435	0.76930971	-48.14360271	-2036.887151	13.76615811	-59.13700299	-2443.993192	74.83923667	263.0048391	-2227.246794	-12.78657026	240.5134333	-2037.623055	44.06747512	98.67844614	-2052.368447	23.06298603	26.07293779
4739	157.9333333	-2396.946566	-113.6198544	135.2669639	-2524.857774	154.613457	132.0111776	-2521.174116	75.05659615	-11.37024801	-2299.663505	-44.6118007	-49.8035497	-2063.561331	2.742328357	-46.91407218	-2031.63586	16.21181129	-56.66366402	-2443.732484	75.48365614	263.2664701	-2225.573643	-12.17374572	242.110674	-2033.488769	45.58098701	102.9520872	-2050.388716	24.43517862	30.19620765
4740	157.9666667	-2396.722849	-113.8931264	135.6613092	-2524.339184	155.1342295	132.0457228	-2520.366779	74.95611565	-10.75814625	-2297.352158	-42.92634207	-49.10806295	-2059.776454	4.675911578	-45.48861292	-2025.6202	19.06951067	-54.08750184	-2443.334715	76.18330673	263.6628742	-2223.917777	-11.24980759	243.5771738	-2029.539475	47.05975829	106.5686478	-2048.12292	25.95132032	33.66366442
4741	158	-2396.382412	-114.0501314	135.9562899	-2523.772432	155.8713214	132.0104075	-2519.769036	74.99167717	-10.33676535	-2295.112797	-41.36547135	-48.43154035	-2056.258611	6.541562902	-43.99448429	-2018.998328	22.52412254	-51.58259443	-2443.039755	77.14818812	263.9609859	-2222.246063	-9.966826665	244.8539952	-2025.802934	48.48030257	109.6939526	-2045.202129	27.74466505	36.70764039
4742	158.0333333	-2396.114373	-114.2935493	136.0457239	-2523.08901	156.8340282	131.7772628	-2519.274571	75.04401456	-10.03165064	-2292.697809	-39.4293393	-47.80275621	-2052.732913	8.605820265	-42.49136487	-2012.171163	26.43999657	-49.24782288	-2442.966982	78.42200853	264.0487615	-2220.567285	-8.286045447	245.9483351	-2022.147943	49.8348636	112.6977655	-2041.607521	29.94365445	39.62367513
4743	158.0666667	-2395.95579	-114.6640573	136.0254554	-2522.368293	157.9053839	131.3316994	-2518.780347	74.99363466	-9.730747295	-2289.822412	-36.66993587	-47.08361967	-2048.885443	11.40678072	-40.91039956	-2005.671813	30.22452935	-47.17405663	-2443.01853	79.77407462	264.0081597	-2218.911732	-6.310501241	246.8955588	-2018.425282	51.21313681	115.6942369	-2037.762966	32.38312791	42.44699276
4744	158.1	-2395.717312	-114.9560457	136.000453	-2521.748501	158.8946258	130.8072723	-2518.346931	74.746651	-9.385901422	-2286.460059	-32.98158237	-46.18679034	-2044.804902	15.14583805	-39.21235484	-1999.936526	33.38734737	-45.46780986	-2443.017623	81.10921667	263.9522292	-2217.238898	-4.245408651	247.6591695	-2014.750705	52.57188358	118.4067843	-2034.12595	34.72507621	45.04765669
